<mxfile host="Electron" modified="2024-04-11T10:23:04.272Z" agent="Mozilla/5.0 (Windows NT 10.0; Win64; x64) AppleWebKit/537.36 (KHTML, like Gecko) draw.io/24.1.0 Chrome/120.0.6099.109 Electron/28.1.0 Safari/537.36" etag="WY7uafmEKd3dXuSM-VVB" version="24.1.0" type="device">
  <diagram name="第 1 页" id="thRDVGrrKaKnLJp-FT1u">
    <mxGraphModel dx="966" dy="647" grid="0" gridSize="10" guides="1" tooltips="1" connect="1" arrows="1" fold="1" page="1" pageScale="1" pageWidth="827" pageHeight="1169" background="none" math="0" shadow="0">
      <root>
        <mxCell id="0" />
        <mxCell id="1" parent="0" />
        <mxCell id="sbej6ymmGspdDhhnKCvo-38" value="" style="edgeStyle=orthogonalEdgeStyle;rounded=0;orthogonalLoop=1;jettySize=auto;html=1;shape=flexArrow;" parent="1" source="sbej6ymmGspdDhhnKCvo-21" target="sbej6ymmGspdDhhnKCvo-23" edge="1">
          <mxGeometry relative="1" as="geometry" />
        </mxCell>
        <mxCell id="sbej6ymmGspdDhhnKCvo-21" value="读取视频流" style="rounded=0;whiteSpace=wrap;html=1;" parent="1" vertex="1">
          <mxGeometry x="204" y="326" width="80" height="40" as="geometry" />
        </mxCell>
        <mxCell id="sbej6ymmGspdDhhnKCvo-37" style="edgeStyle=orthogonalEdgeStyle;rounded=0;orthogonalLoop=1;jettySize=auto;html=1;exitX=0.5;exitY=1;exitDx=0;exitDy=0;entryX=0.5;entryY=0;entryDx=0;entryDy=0;shape=flexArrow;" parent="1" source="sbej6ymmGspdDhhnKCvo-22" target="sbej6ymmGspdDhhnKCvo-21" edge="1">
          <mxGeometry relative="1" as="geometry" />
        </mxCell>
        <mxCell id="gbqg-UfsDZKirh8Yr4Ut-8" style="edgeStyle=orthogonalEdgeStyle;rounded=0;orthogonalLoop=1;jettySize=auto;html=1;exitX=1;exitY=0.5;exitDx=0;exitDy=0;entryX=0;entryY=0.5;entryDx=0;entryDy=0;" parent="1" source="sbej6ymmGspdDhhnKCvo-22" target="1WDidMZ65o4uRr_Ixdwm-7" edge="1">
          <mxGeometry relative="1" as="geometry" />
        </mxCell>
        <mxCell id="gbqg-UfsDZKirh8Yr4Ut-34" style="edgeStyle=orthogonalEdgeStyle;rounded=0;orthogonalLoop=1;jettySize=auto;html=1;exitX=1;exitY=0.5;exitDx=0;exitDy=0;entryX=0;entryY=0.5;entryDx=0;entryDy=0;" parent="1" source="sbej6ymmGspdDhhnKCvo-22" target="gbqg-UfsDZKirh8Yr4Ut-26" edge="1">
          <mxGeometry relative="1" as="geometry" />
        </mxCell>
        <mxCell id="gbqg-UfsDZKirh8Yr4Ut-35" style="edgeStyle=orthogonalEdgeStyle;rounded=0;orthogonalLoop=1;jettySize=auto;html=1;exitX=1;exitY=0.5;exitDx=0;exitDy=0;entryX=0;entryY=0.5;entryDx=0;entryDy=0;" parent="1" source="sbej6ymmGspdDhhnKCvo-22" target="gbqg-UfsDZKirh8Yr4Ut-27" edge="1">
          <mxGeometry relative="1" as="geometry" />
        </mxCell>
        <mxCell id="sbej6ymmGspdDhhnKCvo-22" value="初始化" style="rounded=0;whiteSpace=wrap;html=1;" parent="1" vertex="1">
          <mxGeometry x="204" y="156" width="80" height="40" as="geometry" />
        </mxCell>
        <mxCell id="sbej6ymmGspdDhhnKCvo-39" value="" style="edgeStyle=orthogonalEdgeStyle;rounded=0;orthogonalLoop=1;jettySize=auto;html=1;shape=flexArrow;" parent="1" source="sbej6ymmGspdDhhnKCvo-23" target="sbej6ymmGspdDhhnKCvo-24" edge="1">
          <mxGeometry relative="1" as="geometry" />
        </mxCell>
        <mxCell id="1WDidMZ65o4uRr_Ixdwm-2" value="" style="edgeStyle=orthogonalEdgeStyle;rounded=0;orthogonalLoop=1;jettySize=auto;html=1;" parent="1" source="sbej6ymmGspdDhhnKCvo-23" target="1WDidMZ65o4uRr_Ixdwm-1" edge="1">
          <mxGeometry relative="1" as="geometry" />
        </mxCell>
        <mxCell id="sbej6ymmGspdDhhnKCvo-23" value="采集图像帧" style="rounded=0;whiteSpace=wrap;html=1;" parent="1" vertex="1">
          <mxGeometry x="204" y="416" width="80" height="40" as="geometry" />
        </mxCell>
        <mxCell id="sbej6ymmGspdDhhnKCvo-40" value="" style="edgeStyle=orthogonalEdgeStyle;rounded=0;orthogonalLoop=1;jettySize=auto;html=1;shape=flexArrow;" parent="1" source="sbej6ymmGspdDhhnKCvo-24" target="sbej6ymmGspdDhhnKCvo-25" edge="1">
          <mxGeometry relative="1" as="geometry" />
        </mxCell>
        <mxCell id="sbej6ymmGspdDhhnKCvo-24" value="人体姿态识别" style="rounded=0;whiteSpace=wrap;html=1;" parent="1" vertex="1">
          <mxGeometry x="199" y="516" width="90" height="40" as="geometry" />
        </mxCell>
        <mxCell id="sbej6ymmGspdDhhnKCvo-50" value="" style="edgeStyle=orthogonalEdgeStyle;rounded=0;orthogonalLoop=1;jettySize=auto;html=1;shape=flexArrow;" parent="1" source="sbej6ymmGspdDhhnKCvo-25" target="sbej6ymmGspdDhhnKCvo-49" edge="1">
          <mxGeometry relative="1" as="geometry" />
        </mxCell>
        <mxCell id="sbej6ymmGspdDhhnKCvo-25" value="人体姿态评估" style="rounded=0;whiteSpace=wrap;html=1;" parent="1" vertex="1">
          <mxGeometry x="199" y="606" width="90" height="33" as="geometry" />
        </mxCell>
        <mxCell id="sbej6ymmGspdDhhnKCvo-49" value="系统返回&lt;br&gt;姿态评估" style="rounded=0;whiteSpace=wrap;html=1;" parent="1" vertex="1">
          <mxGeometry x="204" y="686" width="80" height="41" as="geometry" />
        </mxCell>
        <mxCell id="gbqg-UfsDZKirh8Yr4Ut-41" style="edgeStyle=orthogonalEdgeStyle;rounded=0;orthogonalLoop=1;jettySize=auto;html=1;exitX=0.5;exitY=1;exitDx=0;exitDy=0;entryX=0.5;entryY=0;entryDx=0;entryDy=0;" parent="1" source="1WDidMZ65o4uRr_Ixdwm-1" target="gbqg-UfsDZKirh8Yr4Ut-40" edge="1">
          <mxGeometry relative="1" as="geometry" />
        </mxCell>
        <mxCell id="1WDidMZ65o4uRr_Ixdwm-1" value="间隔采集" style="whiteSpace=wrap;html=1;rounded=0;" parent="1" vertex="1">
          <mxGeometry x="324" y="416" width="80" height="40" as="geometry" />
        </mxCell>
        <mxCell id="1WDidMZ65o4uRr_Ixdwm-10" value="" style="edgeStyle=orthogonalEdgeStyle;rounded=0;orthogonalLoop=1;jettySize=auto;html=1;" parent="1" source="1WDidMZ65o4uRr_Ixdwm-7" target="1WDidMZ65o4uRr_Ixdwm-9" edge="1">
          <mxGeometry relative="1" as="geometry" />
        </mxCell>
        <mxCell id="1WDidMZ65o4uRr_Ixdwm-12" style="edgeStyle=orthogonalEdgeStyle;rounded=0;orthogonalLoop=1;jettySize=auto;html=1;exitX=1;exitY=0.5;exitDx=0;exitDy=0;entryX=0;entryY=0.5;entryDx=0;entryDy=0;" parent="1" source="1WDidMZ65o4uRr_Ixdwm-7" target="1WDidMZ65o4uRr_Ixdwm-11" edge="1">
          <mxGeometry relative="1" as="geometry" />
        </mxCell>
        <mxCell id="1WDidMZ65o4uRr_Ixdwm-7" value="估计模型初始化" style="whiteSpace=wrap;html=1;rounded=0;" parent="1" vertex="1">
          <mxGeometry x="370" y="156" width="101" height="40" as="geometry" />
        </mxCell>
        <mxCell id="1WDidMZ65o4uRr_Ixdwm-9" value="加载模型参数" style="whiteSpace=wrap;html=1;rounded=0;" parent="1" vertex="1">
          <mxGeometry x="550" y="156" width="120" height="40" as="geometry" />
        </mxCell>
        <mxCell id="1WDidMZ65o4uRr_Ixdwm-13" style="edgeStyle=orthogonalEdgeStyle;rounded=0;orthogonalLoop=1;jettySize=auto;html=1;exitX=0.5;exitY=1;exitDx=0;exitDy=0;entryX=1;entryY=0.5;entryDx=0;entryDy=0;" parent="1" source="1WDidMZ65o4uRr_Ixdwm-11" target="sbej6ymmGspdDhhnKCvo-25" edge="1">
          <mxGeometry relative="1" as="geometry" />
        </mxCell>
        <mxCell id="1WDidMZ65o4uRr_Ixdwm-11" value="估计运动姿态坐标" style="whiteSpace=wrap;html=1;rounded=0;" parent="1" vertex="1">
          <mxGeometry x="550" y="218.5" width="120" height="40" as="geometry" />
        </mxCell>
        <mxCell id="gbqg-UfsDZKirh8Yr4Ut-36" style="edgeStyle=orthogonalEdgeStyle;rounded=0;orthogonalLoop=1;jettySize=auto;html=1;exitX=1;exitY=0.5;exitDx=0;exitDy=0;entryX=1;entryY=0.5;entryDx=0;entryDy=0;" parent="1" source="gbqg-UfsDZKirh8Yr4Ut-26" target="sbej6ymmGspdDhhnKCvo-21" edge="1">
          <mxGeometry relative="1" as="geometry" />
        </mxCell>
        <mxCell id="gbqg-UfsDZKirh8Yr4Ut-26" value="外部摄像采样" style="rounded=0;whiteSpace=wrap;html=1;" parent="1" vertex="1">
          <mxGeometry x="370" y="218.5" width="100" height="40" as="geometry" />
        </mxCell>
        <mxCell id="gbqg-UfsDZKirh8Yr4Ut-39" style="edgeStyle=orthogonalEdgeStyle;rounded=0;orthogonalLoop=1;jettySize=auto;html=1;exitX=1;exitY=0.5;exitDx=0;exitDy=0;entryX=1;entryY=0.5;entryDx=0;entryDy=0;" parent="1" source="gbqg-UfsDZKirh8Yr4Ut-27" target="sbej6ymmGspdDhhnKCvo-21" edge="1">
          <mxGeometry relative="1" as="geometry" />
        </mxCell>
        <mxCell id="gbqg-UfsDZKirh8Yr4Ut-27" value="本地视频采样" style="rounded=0;whiteSpace=wrap;html=1;" parent="1" vertex="1">
          <mxGeometry x="370" y="276" width="100" height="40" as="geometry" />
        </mxCell>
        <mxCell id="gbqg-UfsDZKirh8Yr4Ut-42" style="edgeStyle=orthogonalEdgeStyle;rounded=0;orthogonalLoop=1;jettySize=auto;html=1;exitX=0.5;exitY=1;exitDx=0;exitDy=0;entryX=1;entryY=0.5;entryDx=0;entryDy=0;" parent="1" source="gbqg-UfsDZKirh8Yr4Ut-40" target="sbej6ymmGspdDhhnKCvo-24" edge="1">
          <mxGeometry relative="1" as="geometry" />
        </mxCell>
        <mxCell id="gbqg-UfsDZKirh8Yr4Ut-40" value="图像过滤" style="whiteSpace=wrap;html=1;rounded=0;" parent="1" vertex="1">
          <mxGeometry x="324" y="476" width="80" height="40" as="geometry" />
        </mxCell>
      </root>
    </mxGraphModel>
  </diagram>
</mxfile>
